<svg width="25" height="26" viewBox="0 0 25 26" fill="none" xmlns="http://www.w3.org/2000/svg">
<g clip-path="url(#clip0_1040_925)">
<path d="M13.286 9.78005C17.275 10.8521 20.7976 10.64 21.1539 9.30638C21.5102 7.97271 18.5653 6.02248 14.5762 4.95042C10.5872 3.87836 7.06469 4.09043 6.70841 5.42409C6.35212 6.75776 9.29703 8.70799 13.286 9.78005Z" stroke="#F8F8FA" stroke-width="1.66667" stroke-linecap="round" stroke-linejoin="round"/>
<path d="M19.6486 14.9411C19.2916 16.2773 15.7934 16.4932 11.7807 15.4148C7.76812 14.3364 4.84616 12.395 5.20312 11.0588" stroke="#F8F8FA" stroke-width="1.66667" stroke-linecap="round" stroke-linejoin="round"/>
<path d="M6.70801 5.42432L3.6975 16.6935C3.34054 18.0296 6.2625 19.971 10.2751 21.0494C14.2878 22.1278 17.786 21.9119 18.143 20.5757L21.1535 9.3066" stroke="#F8F8FA" stroke-width="1.66667" stroke-linecap="round" stroke-linejoin="round"/>
</g>
<defs>
<clipPath id="clip0_1040_925">
<rect width="19.9441" height="19.996" fill="white" transform="matrix(0.965731 0.259545 -0.258095 0.96612 5.37598 0.752441)"/>
</clipPath>
</defs>
</svg>
