<svg width="24" height="25" viewBox="0 0 24 25" fill="none" xmlns="http://www.w3.org/2000/svg">
<path d="M14 22.6387V8.63867C14 5.81024 14 4.39603 13.1213 3.51735C12.2426 2.63867 10.8284 2.63867 8 2.63867C5.17157 2.63867 3.75736 2.63867 2.87868 3.51735C2 4.39603 2 5.81024 2 8.63867V16.6387C2 19.4671 2 20.8813 2.87868 21.76C3.75736 22.6387 5.17157 22.6387 8 22.6387H14Z" stroke="#96EF76" stroke-width="1.5" stroke-linecap="round"/>
<path d="M6.5 11.6387H5.5M10.5 11.6387H9.5M6.5 7.63867H5.5M6.5 15.6387H5.5M10.5 7.63867H9.5M10.5 15.6387H9.5" stroke="#96EF76" stroke-width="1.5" stroke-linecap="round"/>
<path d="M18.5 15.6387H17.5M18.5 11.6387H17.5" stroke="#96EF76" stroke-width="1.5" stroke-linecap="round"/>
<path d="M18 8.63867H14V22.6387H18C19.8856 22.6387 20.8284 22.6387 21.4142 22.0529C22 21.4671 22 20.5243 22 18.6387V12.6387C22 10.7531 22 9.81024 21.4142 9.22446C20.8284 8.63867 19.8856 8.63867 18 8.63867Z" stroke="#96EF76" stroke-width="1.5" stroke-linecap="round"/>
</svg>
