<svg width="60" height="61" viewBox="0 0 60 61" fill="none" xmlns="http://www.w3.org/2000/svg">
<path d="M51.9023 22.6016H46.6055C47.3262 23.5273 47.7598 24.6875 47.7598 25.9473V37.3145C47.7598 40.3203 45.2988 42.7754 42.2988 42.7754H28.9512C29.6602 44.5918 31.4238 45.8867 33.4863 45.8867H51.9023C54.5742 45.8867 56.7656 43.7012 56.7656 41.0234V27.4648C56.7598 24.7871 54.5742 22.6016 51.9023 22.6016Z" fill="#FFB89A"/>
<path d="M45.7441 34.2383V16.8887C45.7441 12.541 42.1875 8.98438 37.8398 8.98438H11.6133C7.26562 8.98438 3.70898 12.541 3.70898 16.8887V34.2383C3.70898 38.3691 6.91992 41.7793 10.9629 42.1133C10.9629 42.1133 9.79102 51.2188 11.25 51.2188C12.709 51.2188 22.2891 42.1426 22.2891 42.1426H37.834C42.1875 42.1426 45.7441 38.5859 45.7441 34.2383ZM20.8945 38.627L19.875 39.5879C19.8574 39.6055 17.8535 41.5039 15.5859 43.5195C15.0879 43.959 14.6367 44.3574 14.2207 44.7207C14.332 43.4961 14.4492 42.5762 14.4492 42.5645L14.918 38.9141L11.25 38.6094C8.99414 38.4219 7.22461 36.5 7.22461 34.2383V16.8887C7.22461 15.7227 7.68164 14.627 8.51953 13.7949C9.35156 12.9629 10.4531 12.5 11.6133 12.5H37.8398C39.0059 12.5 40.1016 12.957 40.9336 13.7949C41.7656 14.627 42.2285 15.7285 42.2285 16.8887V34.2383C42.2285 35.4043 41.7715 36.5 40.9336 37.332C40.1016 38.1641 39 38.627 37.8398 38.627H20.8945Z" fill="#45484C"/>
<path d="M48.6504 19.9118C47.7012 19.7184 46.7695 20.3278 46.5762 21.277C46.3828 22.2262 46.9922 23.1579 47.9414 23.3512C50.2266 23.82 51.8848 25.8532 51.8848 28.1852V38.5563C51.8848 40.9938 50.0625 43.0973 47.6484 43.443L45.7324 43.7184L46.1894 45.5993C46.3066 46.0739 46.418 46.5836 46.5293 47.0817C45.498 46.1207 44.3437 45.0192 43.2949 43.9938L42.7852 43.4899H32.959C31.6758 43.4899 30.8144 43.4079 30.1934 42.986C29.3906 42.4411 28.2949 42.6461 27.75 43.4489C27.2051 44.2516 27.4101 45.3473 28.2129 45.8922C29.7187 46.9176 31.4531 47.0055 32.959 47.0055H41.3496C41.9355 47.5739 42.9492 48.5465 43.9863 49.5133C44.9355 50.3981 45.7207 51.1012 46.3184 51.6168C47.4902 52.6129 48.0351 52.9704 48.7559 52.9704C49.3242 52.9704 49.8516 52.7125 50.209 52.2614C50.8008 51.5055 50.8066 50.5563 50.2383 47.65C50.1562 47.2282 50.0684 46.818 49.9863 46.443C53.1738 45.2067 55.4004 42.0895 55.4004 38.5563V28.1852C55.4062 24.2008 52.5644 20.7204 48.6504 19.9118Z" fill="#45484C"/>
<path d="M25.4648 35.4336C23.3613 35.4336 21.3047 34.4316 19.6758 32.6152C18.2344 31.0039 17.373 29.0059 17.373 27.2598V25.5195L19.1133 25.502C19.1367 25.502 21.2344 25.4785 24.7031 25.4785C25.6758 25.4785 26.4609 26.2637 26.4609 27.2363C26.4609 28.209 25.6758 28.9941 24.7031 28.9941C23.3965 28.9941 22.2891 29 21.4102 29C21.6328 29.416 21.9258 29.8496 22.2949 30.2656C23.2324 31.3145 24.3867 31.9121 25.4648 31.9121C26.543 31.9121 27.6973 31.3086 28.6348 30.2656C29.0156 29.8379 29.3145 29.3926 29.5371 28.9648C28.7344 28.8008 28.125 28.0859 28.1309 27.2363C28.1367 26.2695 28.9219 25.4844 29.8887 25.4844H29.8945C31.4824 25.4902 31.7988 25.4961 31.8633 25.502L33.5566 25.5664V27.2598C33.5566 29.0059 32.6953 31.0039 31.2539 32.6152C29.6191 34.4316 27.5684 35.4336 25.4648 35.4336Z" fill="#54BE96"/>
</svg>
