<svg width="25" height="30" viewBox="0 0 25 30" fill="none" xmlns="http://www.w3.org/2000/svg">
<path d="M20.646 15.5543C20.6606 14.4504 20.9609 13.368 21.519 12.4079C22.0772 11.4478 22.875 10.6411 23.8383 10.0629C23.2264 9.20966 22.4191 8.50746 21.4805 8.01209C20.542 7.51673 19.4981 7.24184 18.4317 7.20927C16.1568 6.97614 13.9515 8.53821 12.7923 8.53821C11.6107 8.53821 9.82589 7.23241 7.90398 7.27101C6.66084 7.31022 5.4493 7.66315 4.3874 8.29541C3.32551 8.92767 2.44948 9.8177 1.84467 10.8788C-0.775192 15.3072 1.17899 21.8156 3.68864 25.3953C4.94428 27.1481 6.41176 29.1061 8.33194 29.0367C10.2109 28.9606 10.9127 27.8669 13.1808 27.8669C15.4279 27.8669 16.0863 29.0367 18.0454 28.9925C20.0617 28.9606 21.332 27.2319 22.5436 25.4625C23.4458 24.2135 24.14 22.8331 24.6006 21.3724C23.4292 20.8887 22.4296 20.0791 21.7263 19.0445C21.0231 18.0098 20.6474 16.796 20.646 15.5543Z" fill="white"/>
<path d="M16.9458 4.85484C18.0452 3.56639 18.5868 1.91031 18.4557 0.238281C16.7761 0.410504 15.2247 1.1942 14.1105 2.43321C13.5657 3.0385 13.1485 3.74268 12.8826 4.50549C12.6168 5.2683 12.5075 6.07479 12.5611 6.87884C13.4012 6.88729 14.2323 6.70952 14.9918 6.35892C15.7513 6.00833 16.4194 5.49406 16.9458 4.85484Z" fill="white"/>
</svg>
