<svg width="782" height="330" viewBox="0 0 782 330" fill="none" xmlns="http://www.w3.org/2000/svg">
<g filter="url(#filter0_d_1040_1852)">
<path d="M677.75 390.622C677.838 451.986 658.149 511.745 621.601 561.037C620.602 562.427 619.56 563.773 618.475 565.119C617.389 566.465 617.215 566.769 616.607 567.508C614.48 570.244 612.265 572.936 610.05 575.585C607.836 578.235 605.708 580.797 603.276 583.316C601.756 585.01 600.236 586.703 598.63 588.354L593.809 593.261L588.902 598.082L586.427 600.34C555.621 628.972 518.891 650.473 478.844 663.316C438.797 676.16 396.415 680.033 354.704 674.659C312.993 669.285 272.976 654.796 237.492 632.221C202.007 609.646 171.926 579.538 149.381 544.032C126.836 508.526 112.38 468.494 107.04 426.775C101.699 385.056 105.605 342.672 118.479 302.632C131.354 262.591 152.881 225.875 181.535 195.088C210.188 164.301 245.266 140.198 284.278 124.489C318.216 110.822 354.473 103.832 391.059 103.904C394.707 103.904 398.311 103.904 401.959 104.164C419.828 104.786 437.597 107.112 455.024 111.113C478.109 116.392 500.453 124.503 521.551 135.26C568.587 159.296 608.068 195.864 635.632 240.927C663.196 285.99 677.772 337.795 677.75 390.622Z" fill="#E0F1FA"/>
<path d="M536.133 204.089C536.14 204.132 536.136 204.177 536.124 204.219C536.112 204.261 536.09 204.3 536.061 204.333C536.032 204.366 535.997 204.392 535.957 204.41C535.917 204.428 535.873 204.437 535.829 204.436C533.832 204.436 523.149 204.436 520.848 199.355C518.325 194.429 514.474 190.307 509.731 187.456C505.041 184.329 498.441 162.918 493.49 172.95C492.659 174.704 492.416 176.679 492.8 178.581C493.183 180.483 494.172 182.21 495.618 183.504C495.904 183.693 496.145 183.943 496.322 184.237C496.499 184.53 496.608 184.86 496.641 185.201C496.674 185.543 496.631 185.887 496.514 186.21C496.397 186.532 496.21 186.824 495.965 187.065C493.707 190.105 490.885 190.018 485.978 191.408C481.071 192.797 477.293 214.686 481.635 213.73C485.978 212.775 491.493 208.779 497.572 210.864C503.652 212.949 527.969 227.714 519.545 234.012C518.069 235.141 507.039 223.893 503.478 222.763C501.046 221.938 506.474 230.45 507.299 233.1C510.142 241 510.94 249.492 509.619 257.783C508.298 266.075 504.901 273.898 499.743 280.524C496.573 285.127 510.817 290.078 510.296 296.462C509.775 302.846 505.953 310.316 502.349 309.057C498.745 307.797 502.001 297.895 496.921 295.159C491.84 292.423 482.721 281.653 478.726 287.733C474.731 293.813 469.78 308.405 475.686 311.619C481.592 314.833 490.798 314.963 492.752 328.991C494.706 343.018 479.334 384.84 458.012 390.747C436.691 396.653 438.384 402.776 445.593 409.291C452.801 415.805 466.133 435.348 450.369 446.422C434.606 457.497 435.344 442.08 424.879 438.475C414.414 434.87 413.285 450.157 420.102 457.54C426.92 464.923 440.555 472.046 440.208 480.688C439.861 489.33 435.866 485.856 429.873 483.337C423.88 480.818 424.749 472.958 416.151 467.225C407.553 461.492 411.504 448.073 406.12 437.78C400.735 427.487 391.181 430.093 384.407 423.405C377.633 416.717 382.974 408.205 375.462 400.214C367.949 392.223 352.229 386.708 344.804 399.736C338.689 410.685 329.791 419.824 319.01 426.228C310.759 431.005 322.266 443.6 315.232 453.067C312.429 457.051 308.855 460.433 304.723 463.012C304.411 463.185 304.066 463.288 303.711 463.314C303.356 463.341 302.999 463.291 302.665 463.167C302.332 463.044 302.028 462.849 301.776 462.598C301.524 462.346 301.33 462.043 301.205 461.709C297.21 451.547 282.446 412.591 283.835 398.129C285.442 381.409 244.232 378.76 230.249 369.553C216.267 360.346 205.845 330.771 201.459 334.202C197.073 337.633 197.507 372.463 206.843 371.985C211.915 371.626 217.012 371.947 221.999 372.941C222.78 373.983 233.723 388.445 222.433 398.998C211.142 409.551 179.225 421.494 173.884 417.108C168.543 412.722 170.931 338.936 164.548 333.203C158.164 327.471 159.641 373.94 159.641 384.276C159.641 394.612 162.246 420.061 167.023 422.797C171.8 425.533 191.037 435.609 193.946 430.658C196.856 425.707 193.469 469.744 169.455 484.596C145.441 499.449 176.316 546.917 179.746 555.733C182.395 562.551 184.74 581.79 186.303 590.216C186.521 591.388 186.303 591.258 185.392 590.216C158.904 562.977 138.096 530.744 124.177 495.391C110.258 460.037 103.507 422.269 104.315 384.282C105.123 346.295 113.475 308.848 128.885 274.119C144.294 239.389 166.455 208.071 194.076 181.984C194.902 181.68 272.241 154.233 278.581 161.659C284.921 169.085 266.379 188.759 278.581 185.979C290.783 183.2 312.235 174.774 317.663 179.421C323.091 184.068 328.91 176.555 339.376 173.341C349.841 170.128 374.116 160.704 374.941 160.313C388.915 162.241 403.088 162.241 417.063 160.313C436.951 157.099 466.219 135.471 479.681 139.944C493.143 144.418 502.175 147.849 505.997 155.449C509.818 163.049 506.257 168.13 510.035 172.212C513.813 176.294 519.632 180.203 523.757 184.633C527.883 189.063 534.961 198.921 536.133 204.089Z" fill="url(#paint0_linear_1040_1852)"/>
<path d="M522.107 243.874C522.107 243.874 527.448 249.086 525.842 251.735C524.235 254.384 527.622 262.809 529.229 264.242C530.805 266.297 531.819 268.728 532.169 271.295C532.519 273.862 532.194 276.475 531.226 278.878C528.36 284.958 528.534 290.126 524.973 292.775C521.412 295.424 514.421 304.935 517.461 309.408C520.5 313.882 523.28 320.83 524.582 319.05C525.885 317.269 523.714 309.582 526.927 304.24C530.141 298.899 537.089 296.901 541.388 290.821C543.29 288.541 544.475 285.748 544.792 282.796C545.109 279.843 544.544 276.863 543.168 274.231C540.649 268.672 534.005 259.595 530.835 259.422C527.665 259.248 527.926 257.25 530.835 255.079C533.745 252.907 535.656 255.426 536.915 250.084C538.174 244.743 536.394 246.132 535.134 242.224C533.875 238.315 531.226 243.31 527.448 242.224C523.67 241.138 521.76 239.401 522.107 243.874Z" fill="url(#paint1_linear_1040_1852)"/>
<path d="M401.951 104.164C401.951 105.076 385.927 109.68 378.849 112.112C369.73 115.282 357.918 114.848 354.271 118.974C350.623 123.099 335.598 127.182 326.479 126.747C317.36 126.313 287.744 134 281.361 134.869C274.977 135.737 283.532 125.488 284.357 124.489C318.268 110.833 354.494 103.843 391.052 103.904C394.699 103.904 398.303 103.947 401.951 104.164Z" fill="url(#paint2_linear_1040_1852)"/>
<path d="M520.761 136.172C519.458 139.299 511.034 138.908 505.997 139.255C500.959 139.603 489.582 126.227 487.02 127.573C484.458 128.919 474.644 127.833 468.868 127.573C463.875 127.486 456.623 115.326 454.625 111.808C454.589 111.738 454.571 111.66 454.572 111.581C454.574 111.502 454.595 111.424 454.634 111.356C454.672 111.287 454.728 111.229 454.794 111.186C454.861 111.144 454.937 111.119 455.016 111.113C478.769 115.89 508.646 127.225 520.674 136.172H520.761Z" fill="url(#paint3_linear_1040_1852)"/>
</g>
<defs>
<filter id="filter0_d_1040_1852" x="0.916679" y="0.57" width="780.167" height="779.771" filterUnits="userSpaceOnUse" color-interpolation-filters="sRGB">
<feFlood flood-opacity="0" result="BackgroundImageFix"/>
<feColorMatrix in="SourceAlpha" type="matrix" values="0 0 0 0 0 0 0 0 0 0 0 0 0 0 0 0 0 0 127 0" result="hardAlpha"/>
<feOffset/>
<feGaussianBlur stdDeviation="51.6667"/>
<feComposite in2="hardAlpha" operator="out"/>
<feColorMatrix type="matrix" values="0 0 0 0 0 0 0 0 0 0 0 0 0 0 0 0 0 0 0.1 0"/>
<feBlend mode="normal" in2="BackgroundImageFix" result="effect1_dropShadow_1040_1852"/>
<feBlend mode="normal" in="SourceGraphic" in2="effect1_dropShadow_1040_1852" result="shape"/>
</filter>
<linearGradient id="paint0_linear_1040_1852" x1="104.25" y1="365.192" x2="536.136" y2="365.192" gradientUnits="userSpaceOnUse">
<stop stop-color="#085078"/>
<stop offset="1" stop-color="#85D8CE"/>
</linearGradient>
<linearGradient id="paint1_linear_1040_1852" x1="516.714" y1="280.02" x2="544.878" y2="280.02" gradientUnits="userSpaceOnUse">
<stop stop-color="#085078"/>
<stop offset="1" stop-color="#85D8CE"/>
</linearGradient>
<linearGradient id="paint2_linear_1040_1852" x1="279.011" y1="119.412" x2="401.951" y2="119.412" gradientUnits="userSpaceOnUse">
<stop stop-color="#085078"/>
<stop offset="1" stop-color="#85D8CE"/>
</linearGradient>
<linearGradient id="paint3_linear_1040_1852" x1="454.572" y1="125.188" x2="520.761" y2="125.188" gradientUnits="userSpaceOnUse">
<stop stop-color="#085078"/>
<stop offset="1" stop-color="#85D8CE"/>
</linearGradient>
</defs>
</svg>
