<svg width="24" height="25" viewBox="0 0 24 25" fill="none" xmlns="http://www.w3.org/2000/svg">
<path d="M9.15826 6.3509L8.7556 5.44492C8.49232 4.85255 8.36068 4.55635 8.16381 4.32968C7.91708 4.04561 7.59547 3.83661 7.23568 3.72652C6.94859 3.63867 6.62446 3.63867 5.97621 3.63867C5.02791 3.63867 4.55376 3.63867 4.15573 3.82096C3.68687 4.03569 3.26344 4.50195 3.09473 4.98927C2.95151 5.40296 2.99254 5.8281 3.07458 6.67837C3.94791 15.7289 8.90982 20.6908 17.9603 21.5641C18.8106 21.6462 19.2358 21.6872 19.6494 21.544C20.1368 21.3753 20.603 20.9518 20.8178 20.483C21 20.0849 21 19.6108 21 18.6625C21 18.0142 21 17.6901 20.9122 17.403C20.8021 17.0432 20.5931 16.7216 20.309 16.4749C20.0824 16.278 19.7862 16.1464 19.1938 15.8831L18.2878 15.4804C17.6463 15.1953 17.3255 15.0528 16.9996 15.0218C16.6876 14.9921 16.3731 15.0359 16.0811 15.1496C15.776 15.2684 15.5064 15.4931 14.967 15.9425C14.4302 16.3899 14.1618 16.6136 13.8338 16.7334C13.543 16.8396 13.1586 16.879 12.8524 16.8338C12.5069 16.7829 12.2424 16.6416 11.7133 16.3588C10.0673 15.4792 9.15953 14.5715 8.27987 12.9254C7.99714 12.3964 7.85578 12.1318 7.80487 11.7864C7.75974 11.4801 7.79908 11.0957 7.9053 10.805C8.02512 10.477 8.24881 10.2085 8.69619 9.67167C9.14562 9.13235 9.37034 8.86269 9.48915 8.55758C9.60285 8.26561 9.64662 7.95107 9.61695 7.63915C9.58594 7.31319 9.44338 6.99243 9.15826 6.3509Z" stroke="#96EF76" stroke-width="1.5" stroke-linecap="round"/>
</svg>
