<svg width="20" height="21" viewBox="0 0 20 21" fill="none" xmlns="http://www.w3.org/2000/svg">
<path d="M11.5833 13.2275H5.33333C3.76198 13.2275 2.97631 13.2275 2.48816 12.7394C2 12.2512 2 11.4655 2 9.89421V6.56087C2 4.98952 2 4.20385 2.48816 3.7157C2.97631 3.22754 3.76198 3.22754 5.33333 3.22754H15.3333C16.9047 3.22754 17.6903 3.22754 18.1785 3.7157C18.6667 4.20385 18.6667 4.98952 18.6667 6.56087V10.7275C18.6667 11.5041 18.6667 11.8924 18.5398 12.1987C18.3707 12.607 18.0462 12.9315 17.6378 13.1007C17.3315 13.2275 16.9432 13.2275 16.1667 13.2275" stroke="white" stroke-width="1.5" stroke-linecap="round" stroke-linejoin="round"/>
<path d="M11.3333 8.2277C11.3333 9.14812 10.5872 9.89437 9.66667 9.89437C8.74617 9.89437 8 9.14812 8 8.2277C8 7.30723 8.74617 6.56104 9.66667 6.56104C10.5872 6.56104 11.3333 7.30723 11.3333 8.2277Z" stroke="white" stroke-width="1.5" stroke-linecap="round" stroke-linejoin="round"/>
<path d="M10.8333 14.8942C10.8333 13.5135 11.9526 12.3942 13.3333 12.3942V10.7275C13.3333 9.34679 14.4526 8.22754 15.8333 8.22754V12.8109C15.8333 14.7564 15.8333 15.7291 15.4398 16.4655C15.129 17.047 14.6527 17.5232 14.0713 17.834C13.3349 18.2275 12.3622 18.2275 10.4167 18.2275H10C8.44683 18.2275 7.67029 18.2275 7.05772 17.9738C6.24096 17.6355 5.59205 16.9865 5.25373 16.1698C5 15.5572 5 14.7807 5 13.2275" stroke="white" stroke-width="1.5" stroke-linecap="round" stroke-linejoin="round"/>
</svg>
