<svg width="24" height="25" viewBox="0 0 24 25" fill="none" xmlns="http://www.w3.org/2000/svg">
<path d="M17.0235 3.76063L16.0689 3.50629C13.369 2.78691 12.019 2.42723 10.9555 3.03779C9.89196 3.64835 9.53023 4.99072 8.80678 7.67546L7.78366 11.4723C7.0602 14.157 6.69848 15.4994 7.3125 16.5569C7.92652 17.6145 9.27651 17.9741 11.9765 18.6935L12.9311 18.9479C15.631 19.6672 16.981 20.0269 18.0445 19.4164C19.108 18.8058 19.4698 17.4634 20.1932 14.7787L21.2163 10.9819C21.9398 8.2971 22.3015 6.95473 21.6875 5.89721C21.0735 4.83969 19.7235 4.48 17.0235 3.76063Z" stroke="white" stroke-width="1.5"/>
<path d="M16.8535 8.16006C16.8535 8.97414 16.1898 9.63409 15.3711 9.63409C14.5524 9.63409 13.8887 8.97414 13.8887 8.16006C13.8887 7.34598 14.5524 6.68604 15.3711 6.68604C16.1898 6.68604 16.8535 7.34598 16.8535 8.16006Z" stroke="white" stroke-width="1.5"/>
<path d="M12 21.6733L11.0477 21.9326C8.35403 22.6661 7.00722 23.0329 5.94619 22.4103C4.88517 21.7878 4.52429 20.4191 3.80253 17.6817L2.78182 13.8104C2.06006 11.073 1.69918 9.70434 2.31177 8.62607C2.84167 7.69334 4 7.7273 5.5 7.72718" stroke="white" stroke-width="1.5" stroke-linecap="round"/>
</svg>
