<svg width="24" height="25" viewBox="0 0 24 25" fill="none" xmlns="http://www.w3.org/2000/svg">
<path d="M22 13.7275C21.9221 15.5998 21.671 16.7478 20.8614 17.5559C19.6878 18.7275 17.7989 18.7275 14.021 18.7275H10.014C6.23617 18.7275 4.34725 18.7275 3.17362 17.5559C2 16.3844 2 14.4987 2 10.7275C2 6.9563 2 5.07069 3.17362 3.89911C4.34725 2.72754 6.23617 2.72754 10.014 2.72754H11" stroke="white" stroke-width="1.5" stroke-linecap="round"/>
<path d="M12 18.7275V22.7275" stroke="white" stroke-width="1.5"/>
<path d="M8 22.7275H16" stroke="white" stroke-width="1.5" stroke-linecap="round"/>
<path d="M11 15.7275H13" stroke="white" stroke-width="1.5" stroke-linecap="round" stroke-linejoin="round"/>
<path d="M22 6.22754V3.72754C20 3.72754 18.5 2.72754 18.5 2.72754C18.5 2.72754 17 3.72754 15 3.72754V6.22754C15 9.72754 18.5 10.7275 18.5 10.7275C18.5 10.7275 22 9.72754 22 6.22754Z" stroke="white" stroke-width="1.5" stroke-linecap="round" stroke-linejoin="round"/>
</svg>
