<svg width="24" height="25" viewBox="0 0 24 25" fill="none" xmlns="http://www.w3.org/2000/svg">
<path fill-rule="evenodd" clip-rule="evenodd" d="M6.18182 10.972C5.20406 10.972 5 11.1639 5 12.0831V13.7498C5 14.6691 5.20406 14.8609 6.18182 14.8609H8.54545V21.5276C8.54545 22.4468 8.74951 22.6387 9.72727 22.6387H12.0909C13.0687 22.6387 13.2727 22.4468 13.2727 21.5276V14.8609H15.9267C16.6683 14.8609 16.8594 14.7254 17.0631 14.0551L17.5696 12.3884C17.9185 11.2401 17.7035 10.972 16.4332 10.972H13.2727V8.19423C13.2727 7.58058 13.8018 7.08311 14.4545 7.08311H17.8182C18.7959 7.08311 19 6.89126 19 5.972V3.74978C19 2.83052 18.7959 2.63867 17.8182 2.63867H14.4545C11.191 2.63867 8.54545 5.12598 8.54545 8.19423V10.972H6.18182Z" stroke="white" stroke-width="1.5" stroke-linejoin="round"/>
</svg>
