<svg width="60" height="61" viewBox="0 0 60 61" fill="none" xmlns="http://www.w3.org/2000/svg">
<g clip-path="url(#clip0_1040_1915)">
<path d="M51 0.113281H9C4.02944 0.113281 0 4.14272 0 9.11328V51.1133C0 56.0838 4.02944 60.1133 9 60.1133H51C55.9706 60.1133 60 56.0838 60 51.1133V9.11328C60 4.14272 55.9706 0.113281 51 0.113281Z" fill="white"/>
<path d="M18.5156 45.9336V29.293L8.90625 21.9102V42.418C8.90625 44.7617 10.0781 45.9336 12.4219 45.9336" fill="#4285F4"/>
<path d="M18.0469 29.1758L30 38.1992L41.9531 29.1758V17.6914L30 26.7148L18.0469 17.6914" fill="#EA4335"/>
<path d="M41.4844 45.9336V29.293L51.0938 21.9102V42.418C51.0938 44.7617 49.9219 45.9336 47.5781 45.9336" fill="#34A853"/>
<path d="M8.90625 22.1448L18.5156 29.5276V18.0432L15 15.3479C11.8359 12.887 8.90625 15.3479 8.90625 18.3948" fill="#C5221F"/>
<path d="M51.0938 22.1448L41.4844 29.5276V18.0432L45 15.3479C48.1641 12.887 51.0938 15.3479 51.0938 18.3948" fill="#FBBC04"/>
</g>
<defs>
<clipPath id="clip0_1040_1915">
<rect width="60" height="60" fill="white" transform="translate(0 0.113281)"/>
</clipPath>
</defs>
</svg>
