<svg width="30" height="31" viewBox="0 0 30 31" fill="none" xmlns="http://www.w3.org/2000/svg">
<path d="M2.52148 17.5137C5.27095 17.5137 7.49983 19.7425 7.49983 22.492" stroke="#52BD94" stroke-width="2" stroke-linecap="round" stroke-linejoin="round"/>
<path d="M22.5 22.492V22.3772C22.5 19.6912 24.6775 17.5137 27.3635 17.5137" stroke="#52BD94" stroke-width="2" stroke-linecap="round" stroke-linejoin="round"/>
<path d="M7.49983 5.0332C7.49983 7.78268 5.27095 10.0116 2.52148 10.0116" stroke="#52BD94" stroke-width="2" stroke-linecap="round" stroke-linejoin="round"/>
<path d="M22.5 5.0332C22.5 7.7586 24.7113 9.97249 27.4279 10.011" stroke="#52BD94" stroke-width="2" stroke-linecap="round" stroke-linejoin="round"/>
<path d="M20 5.01367H10C6.46446 5.01367 4.6967 5.01367 3.59835 6.11202C2.5 7.21037 2.5 8.97813 2.5 12.5137V15.0137C2.5 18.5492 2.5 20.3169 3.59835 21.4153C4.6967 22.5137 6.46446 22.5137 10 22.5137H20C23.5355 22.5137 25.3032 22.5137 26.4016 21.4153C27.5 20.3169 27.5 18.5492 27.5 15.0137V12.5137C27.5 8.97813 27.5 7.21037 26.4016 6.11202C25.3032 5.01367 23.5355 5.01367 20 5.01367Z" stroke="#52BD94" stroke-width="2" stroke-linecap="round" stroke-linejoin="round"/>
<path d="M6.25 26.2637H23.75" stroke="#52BD94" stroke-width="2" stroke-linecap="round" stroke-linejoin="round"/>
<path d="M18.75 13.7637C18.75 15.8348 17.0711 17.5137 15 17.5137C12.9289 17.5137 11.25 15.8348 11.25 13.7637C11.25 11.6926 12.9289 10.0137 15 10.0137C17.0711 10.0137 18.75 11.6926 18.75 13.7637Z" stroke="#52BD94" stroke-width="2" stroke-linecap="round" stroke-linejoin="round"/>
</svg>
