<svg width="24" height="25" viewBox="0 0 24 25" fill="none" xmlns="http://www.w3.org/2000/svg">
<path d="M2.5 12.6387C2.5 8.16033 2.5 5.92116 3.89124 4.52991C5.28249 3.13867 7.52166 3.13867 12 3.13867C16.4783 3.13867 18.7175 3.13867 20.1088 4.52991C21.5 5.92116 21.5 8.16033 21.5 12.6387C21.5 17.117 21.5 19.3562 20.1088 20.7475C18.7175 22.1387 16.4783 22.1387 12 22.1387C7.52166 22.1387 5.28249 22.1387 3.89124 20.7475C2.5 19.3562 2.5 17.117 2.5 12.6387Z" stroke="white" stroke-width="1.5" stroke-linejoin="round"/>
<path d="M16.5 12.6387C16.5 15.124 14.4853 17.1387 12 17.1387C9.51472 17.1387 7.5 15.124 7.5 12.6387C7.5 10.1534 9.51472 8.13867 12 8.13867C14.4853 8.13867 16.5 10.1534 16.5 12.6387Z" stroke="white" stroke-width="1.5"/>
<path d="M17.508 7.13867H17.499" stroke="white" stroke-width="1.5" stroke-linecap="round" stroke-linejoin="round"/>
</svg>
