<svg width="24" height="25" viewBox="0 0 24 25" fill="none" xmlns="http://www.w3.org/2000/svg">
<path d="M4.5 10.1387H4C3.05719 10.1387 2.58579 10.1387 2.29289 10.4316C2 10.7245 2 11.1959 2 12.1387V20.6387C2 21.5815 2 22.0529 2.29289 22.3458C2.58579 22.6387 3.05719 22.6387 4 22.6387H4.5C5.44281 22.6387 5.91421 22.6387 6.20711 22.3458C6.5 22.0529 6.5 21.5815 6.5 20.6387V12.1387C6.5 11.1959 6.5 10.7245 6.20711 10.4316C5.91421 10.1387 5.44281 10.1387 4.5 10.1387Z" stroke="white" stroke-width="1.5"/>
<path d="M6.5 4.88867C6.5 6.13131 5.49264 7.13867 4.25 7.13867C3.00736 7.13867 2 6.13131 2 4.88867C2 3.64603 3.00736 2.63867 4.25 2.63867C5.49264 2.63867 6.5 3.64603 6.5 4.88867Z" stroke="white" stroke-width="1.5"/>
<path d="M12.326 10.1387H11.5C10.5572 10.1387 10.0858 10.1387 9.79289 10.4316C9.5 10.7245 9.5 11.1959 9.5 12.1387V20.6387C9.5 21.5815 9.5 22.0529 9.79289 22.3458C10.0858 22.6387 10.5572 22.6387 11.5 22.6387H12C12.9428 22.6387 13.4142 22.6387 13.7071 22.3458C14 22.0529 14 21.5815 14 20.6387L14.0001 17.1388C14.0001 15.482 14.5281 14.1388 16.0879 14.1388C16.8677 14.1388 17.5 14.8104 17.5 15.6388V20.1388C17.5 21.0816 17.5 21.553 17.7929 21.8459C18.0857 22.1388 18.5572 22.1388 19.5 22.1388H19.9987C20.9413 22.1388 21.4126 22.1388 21.7055 21.846C21.9984 21.5532 21.9985 21.0819 21.9987 20.1393L22.0001 14.6389C22.0001 12.1537 19.6364 10.1389 17.2968 10.1389C15.9649 10.1389 14.7767 10.7918 14.0001 11.8127C14 11.1826 14 10.8676 13.8632 10.6337C13.7765 10.4855 13.6531 10.3622 13.505 10.2755C13.2711 10.1387 12.9561 10.1387 12.326 10.1387Z" stroke="white" stroke-width="1.5" stroke-linejoin="round"/>
</svg>
