<svg width="24" height="25" viewBox="0 0 24 25" fill="none" xmlns="http://www.w3.org/2000/svg">
<path d="M2 6.63867L8.91302 10.5556C11.4616 11.9997 12.5384 11.9997 15.087 10.5556L22 6.63867" stroke="#96EF76" stroke-width="1.5" stroke-linejoin="round"/>
<path d="M2.01577 14.1143C2.08114 17.1799 2.11383 18.7126 3.24496 19.8481C4.37608 20.9835 5.95033 21.023 9.09883 21.1021C11.0393 21.1509 12.9607 21.1509 14.9012 21.1021C18.0497 21.023 19.6239 20.9835 20.7551 19.8481C21.8862 18.7126 21.9189 17.1799 21.9842 14.1143C22.0053 13.1286 22.0053 12.1488 21.9842 11.1631C21.9189 8.09753 21.8862 6.56476 20.7551 5.42933C19.6239 4.2939 18.0497 4.25435 14.9012 4.17524C12.9607 4.12648 11.0393 4.12648 9.09882 4.17523C5.95033 4.25433 4.37608 4.29388 3.24495 5.42932C2.11382 6.56475 2.08114 8.09752 2.01576 11.1631C1.99474 12.1488 1.99475 13.1286 2.01577 14.1143Z" stroke="#96EF76" stroke-width="1.5" stroke-linejoin="round"/>
</svg>
