<svg width="30" height="31" viewBox="0 0 30 31" fill="none" xmlns="http://www.w3.org/2000/svg">
<path d="M2.52148 18.1387C5.27095 18.1387 7.49983 20.3675 7.49983 23.117" stroke="#52BD94" stroke-width="2" stroke-linecap="round" stroke-linejoin="round"/>
<path d="M7.49983 5.66016C7.49983 8.40962 5.27095 10.6385 2.52148 10.6385" stroke="#52BD94" stroke-width="2" stroke-linecap="round" stroke-linejoin="round"/>
<path d="M22.5 5.66016C22.5 8.38556 24.7113 10.5994 27.4279 10.638" stroke="#52BD94" stroke-width="2" stroke-linecap="round" stroke-linejoin="round"/>
<path d="M27.5 14.3887V13.1387C27.5 9.60313 27.5 7.83537 26.4016 6.73702C25.3032 5.63867 23.5355 5.63867 20 5.63867H10C6.46446 5.63867 4.6967 5.63867 3.59835 6.73702C2.5 7.83537 2.5 9.60313 2.5 13.1387V15.6387C2.5 19.1742 2.5 20.9419 3.59835 22.0403C4.6967 23.1387 6.46446 23.1387 10 23.1387H13.75" stroke="#52BD94" stroke-width="2" stroke-linecap="round" stroke-linejoin="round"/>
<path d="M18.75 14.3887C18.75 16.4598 17.0711 18.1387 15 18.1387C12.9289 18.1387 11.25 16.4598 11.25 14.3887C11.25 12.3176 12.9289 10.6387 15 10.6387C17.0711 10.6387 18.75 12.3176 18.75 14.3887Z" stroke="#52BD94" stroke-width="2" stroke-linecap="round" stroke-linejoin="round"/>
<path d="M17.5 23.1387C17.5 23.1387 18.75 23.1387 20 25.6387C20 25.6387 23.9706 19.3887 27.5 18.1387" stroke="#52BD94" stroke-width="2" stroke-linecap="round" stroke-linejoin="round"/>
</svg>
