<svg width="60" height="61" viewBox="0 0 60 61" fill="none" xmlns="http://www.w3.org/2000/svg">
<path fill-rule="evenodd" clip-rule="evenodd" d="M26.7165 16.311L25.094 13.4037C22.8829 9.44188 17.3269 8.97398 13.8445 12.4564C11.752 14.5489 10.1238 17.1123 10.0164 19.946C9.87715 23.6187 10.5607 29.2655 14.5911 35.3785L25.2868 24.6828C27.593 22.3766 28.1808 18.9347 26.7165 16.311ZM35.4305 34.8265L24.7348 45.5223C30.8478 49.5525 36.4948 50.236 40.1673 50.0968C43.001 49.9895 45.5645 48.3613 47.657 46.2688C51.1393 42.7863 50.6715 37.2303 46.7095 35.0193L43.8023 33.3968C41.1785 31.9325 37.7368 32.5203 35.4305 34.8265Z" fill="#54BE96"/>
<path opacity="0.5" d="M27.561 32.5528C22.4891 27.481 25.2865 24.6836 25.2865 24.6836L14.5908 35.3793C15.7954 37.2063 17.299 39.0748 19.169 40.9448C21.0389 42.8148 22.9075 44.3183 24.7345 45.523L35.4302 34.8273C35.4302 34.8273 32.6327 37.6245 27.561 32.5528Z" fill="#54BE96"/>
</svg>
