<svg width="26" height="30" viewBox="0 0 26 30" fill="none" xmlns="http://www.w3.org/2000/svg">
<path d="M12.3653 13.9921L0.707031 26.6452C0.708126 26.6474 0.708126 26.6508 0.709221 26.653C1.06728 28.027 2.29366 29.0381 3.74998 29.0381C4.33251 29.0381 4.87891 28.8768 5.34756 28.5947L5.38479 28.5723L18.507 20.8292L12.3653 13.9921Z" fill="#EA4335"/>
<path d="M24.1586 11.8377L24.1477 11.8299L18.4823 8.47176L12.0996 14.2799L18.5052 20.8281L24.14 17.5036C25.1277 16.9572 25.7989 15.8923 25.7989 14.6651C25.7989 13.4445 25.1375 12.3853 24.1586 11.8377Z" fill="#FBBC04"/>
<path d="M0.706917 2.63037C0.636839 2.89463 0.599609 3.17233 0.599609 3.45898V25.818C0.599609 26.1047 0.636839 26.3824 0.708012 26.6455L12.7659 14.316L0.706917 2.63037Z" fill="#4285F4"/>
<path d="M12.4518 14.6387L18.4851 8.47001L5.37822 0.69899C4.9019 0.406736 4.34565 0.238776 3.75108 0.238776C2.29475 0.238776 1.06618 1.25214 0.708126 2.62719C0.708126 2.62831 0.707031 2.62943 0.707031 2.63055L12.4518 14.6387Z" fill="#34A853"/>
</svg>
