<svg width="24" height="25" viewBox="0 0 24 25" fill="none" xmlns="http://www.w3.org/2000/svg">
<path d="M16 22.6382V22.1382C16 21.0337 16.9321 20.1387 17.9223 19.6493C18.8846 19.1736 19.6943 18.3894 19.7965 17.4695L20 15.6382L22 14.6382L19.5 10.8882C19.5 6.58472 16.2049 3.05079 12 2.67188M6.5 17.6344V22.6382M6.5 17.6344C5.46656 16.9055 4.60808 15.945 4 14.8285M6.5 17.6344C7.25065 18.164 8.09362 18.5713 9 18.8277" stroke="white" stroke-width="1.5" stroke-linecap="round" stroke-linejoin="round"/>
<path d="M8 4.63867H6C5.05719 4.63867 4.58579 4.63867 4.29289 4.93156C4 5.22446 4 5.69586 4 6.63867V8.63867C4 9.58148 4 10.0529 4.29289 10.3458C4.58579 10.6387 5.05719 10.6387 6 10.6387H8C8.94281 10.6387 9.41421 10.6387 9.70711 10.3458C10 10.0529 10 9.58148 10 8.63867V6.63867C10 5.69586 10 5.22446 9.70711 4.93156C9.41421 4.63867 8.94281 4.63867 8 4.63867Z" stroke="white" stroke-width="1.5" stroke-linecap="round" stroke-linejoin="round"/>
<path d="M5.5 10.6387V12.6387M8.5 10.6387V12.6387M5.5 2.63867V4.63867M8.5 2.63867V4.63867M4 6.13867H2M4 9.13867H2M12 6.13867H10M12 9.13867H10" stroke="white" stroke-width="1.5" stroke-linecap="round" stroke-linejoin="round"/>
</svg>
