<svg width="25" height="25" viewBox="0 0 25 25" fill="none" xmlns="http://www.w3.org/2000/svg">
<path d="M22.25 7.92203C22.25 10.5636 20.0111 12.7054 17.25 12.7054C16.9253 12.7058 16.6016 12.6758 16.2827 12.6159C16.0531 12.5728 15.9383 12.5513 15.8582 12.5635C15.7781 12.5757 15.6645 12.6361 15.4374 12.7569C14.795 13.0985 14.0459 13.2192 13.3255 13.0852C13.5993 12.7484 13.7863 12.3443 13.8688 11.9111C13.9188 11.6461 13.795 11.3887 13.6094 11.2003C12.7666 10.3444 12.25 9.19121 12.25 7.92203C12.25 5.28045 14.4888 3.13867 17.25 3.13867C20.0111 3.13867 22.25 5.28045 22.25 7.92203Z" stroke="white" stroke-width="1.5" stroke-linejoin="round"/>
<path d="M15.7422 8.13867H15.7503M18.7422 8.13867H18.7503" stroke="white" stroke-width="1.5" stroke-linecap="round"/>
<path d="M7.75189 22.1387H4.96817C4.64488 22.1387 4.32021 22.0932 4.02327 21.9656C3.05666 21.5503 2.56624 21.0019 2.33769 20.6588C2.20764 20.4637 2.22617 20.215 2.36726 20.0276C3.48716 18.5401 6.08846 17.6417 7.75665 17.6416C9.42484 17.6417 12.0214 18.5401 13.1413 20.0276C13.2824 20.215 13.3009 20.4637 13.1709 20.6588C12.9423 21.0019 12.4519 21.5503 11.4853 21.9656C11.1883 22.0932 10.8637 22.1387 10.5404 22.1387H7.75189Z" stroke="white" stroke-width="1.5" stroke-linecap="round" stroke-linejoin="round"/>
<path d="M10.535 12.4279C10.535 13.9592 9.29092 15.2006 7.75627 15.2006C6.22162 15.2006 4.97754 13.9592 4.97754 12.4279C4.97754 10.8966 6.22162 9.65527 7.75627 9.65527C9.29092 9.65527 10.535 10.8966 10.535 12.4279Z" stroke="white" stroke-width="1.5" stroke-linecap="round" stroke-linejoin="round"/>
</svg>
