<svg width="25" height="25" viewBox="0 0 25 25" fill="none" xmlns="http://www.w3.org/2000/svg">
<rect width="24" height="24" transform="translate(0.605469 0.638672)" fill="#0F8CE9"/>
<path d="M19.6055 10.2594C19.6055 12.8386 18.3357 14.8239 16.4038 16.1304C15.9538 16.4347 15.7288 16.5869 15.6177 16.7599C15.5067 16.9329 15.4688 17.1601 15.3931 17.6144L15.3342 17.9675C15.2012 18.7657 15.1347 19.1647 14.8549 19.4017C14.5752 19.6387 14.1706 19.6387 13.3614 19.6387H10.7499C9.94075 19.6387 9.53616 19.6387 9.25642 19.4017C8.97667 19.1647 8.91016 18.7657 8.77713 17.9675L8.71828 17.6144C8.64281 17.1616 8.60508 16.9352 8.49515 16.763C8.38523 16.5908 8.15975 16.4367 7.70879 16.1284C5.79737 14.8219 4.60547 12.8373 4.60547 10.2594C4.60547 6.05057 7.96333 2.63867 12.1055 2.63867C12.6192 2.63867 13.1208 2.69115 13.6055 2.79111" stroke="white" stroke-width="1.5" stroke-linecap="round" stroke-linejoin="round"/>
<path d="M17.1055 2.63867L17.3634 3.3357C17.7016 4.24969 17.8707 4.70669 18.2041 5.04006C18.5375 5.37344 18.9945 5.54254 19.9085 5.88075L20.6055 6.13867L19.9085 6.39659C18.9945 6.7348 18.5375 6.90391 18.2041 7.23728C17.8707 7.57065 17.7016 8.02765 17.3634 8.94164L17.1055 9.63867L16.8476 8.94164C16.5094 8.02765 16.3403 7.57065 16.0069 7.23728C15.6735 6.90391 15.2165 6.7348 14.3025 6.39659L13.6055 6.13867L14.3025 5.88075C15.2165 5.54254 15.6735 5.37344 16.0069 5.04006C16.3403 4.70669 16.5094 4.24969 16.8476 3.3357L17.1055 2.63867Z" stroke="white" stroke-width="1.5" stroke-linejoin="round"/>
<path d="M14.1055 19.6387V20.6387C14.1055 21.5815 14.1055 22.0529 13.8126 22.3458C13.5197 22.6387 13.0483 22.6387 12.1055 22.6387C11.1627 22.6387 10.6913 22.6387 10.3984 22.3458C10.1055 22.0529 10.1055 21.5815 10.1055 20.6387V19.6387" stroke="white" stroke-width="1.5" stroke-linejoin="round"/>
</svg>
