<svg width="60" height="61" viewBox="0 0 60 61" fill="none" xmlns="http://www.w3.org/2000/svg">
<g clip-path="url(#clip0_1040_1891)">
<path fill-rule="evenodd" clip-rule="evenodd" d="M29.9913 0.113281C13.4528 0.113281 0 13.5699 0 30.113C0 36.6738 2.1158 42.7583 5.71251 47.697L1.97449 58.843L13.5056 55.1577C18.2482 58.297 23.908 60.1133 30.0087 60.1133C46.5472 60.1133 60 46.6562 60 30.1135C60 13.5704 46.5472 0.113777 30.0087 0.113777L29.9913 0.113281ZM21.6161 15.3518C21.0344 13.9586 20.5935 13.9059 19.7122 13.87C19.4122 13.8526 19.0778 13.8352 18.707 13.8352C17.5606 13.8352 16.3618 14.1702 15.6388 14.9108C14.7575 15.8103 12.571 17.9088 12.571 22.2123C12.571 26.5158 15.7095 30.678 16.1324 31.2603C16.5733 31.8417 22.251 40.8012 31.0666 44.4527C37.9604 47.3097 40.0061 47.0449 41.5751 46.7099C43.8671 46.2162 46.7413 44.5223 47.4643 42.4771C48.1873 40.4309 48.1873 38.6847 47.9753 38.3144C47.7638 37.9441 47.1816 37.7331 46.3004 37.2915C45.4191 36.8505 41.1342 34.7341 40.3231 34.4519C39.5294 34.1522 38.7716 34.2583 38.1725 35.1049C37.326 36.2866 36.4975 37.4862 35.8273 38.2089C35.2983 38.7734 34.4339 38.844 33.7114 38.5439C32.7416 38.1387 30.0266 37.1855 26.6763 34.205C24.0842 31.895 22.3212 29.0205 21.8102 28.1564C21.2986 27.2749 21.7573 26.7627 22.1624 26.2868C22.6033 25.7398 23.0263 25.3521 23.4672 24.8404C23.9081 24.3292 24.1549 24.0644 24.437 23.4646C24.7371 22.8827 24.5251 22.283 24.3136 21.8419C24.1021 21.4009 22.3391 17.0974 21.6161 15.3518Z" fill="#67C15E"/>
</g>
<defs>
<clipPath id="clip0_1040_1891">
<rect width="60" height="60" fill="white" transform="translate(0 0.113281)"/>
</clipPath>
</defs>
</svg>
